<svg xmlns="http://www.w3.org/2000/svg" xml:space="preserve" baseProfile="basic" viewBox="0 0 134 39.5"><path d="M94.2 22.3c1.6 1.4 3.5 2.1 5.7 2.1 2.6 0 4.6-.8 6.1-2.5.9-1.1 1.5-2.1 1.6-3.1H103c-.2.5-.5.9-.8 1.2-.6.5-1.3.8-2.2.8-.9 0-1.6-.2-2.2-.7-1-.7-1.5-1.9-1.6-3.7h11.6c0-1.5 0-2.6-.1-3.4-.2-1.4-.6-2.5-1.3-3.6-.7-1.2-1.7-2-2.8-2.6-1.1-.5-2.4-.8-3.8-.8-2.4 0-4.3.8-5.8 2.4-1.5 1.6-2.2 3.9-2.2 6.9-.1 3.3.7 5.6 2.4 7zm3.1-11.5c.6-.7 1.4-1 2.4-1 .9 0 1.7.3 2.4.9s1 1.5 1.1 2.7h-6.9c.1-1 .5-1.9 1-2.6zM115 .5h-4.5V24h4.5V.5zm13.3 20.1c-.5.3-1.2.4-2.1.4-1.5 0-2.5-.3-3-.9-.3-.3-.5-.9-.6-1.7h-4.5c0 1.8.6 3.2 1.9 4.4 1.3 1.1 3.2 1.7 5.9 1.7 2.6 0 4.5-.5 5.8-1.6 1.2-1.1 1.9-2.5 1.9-4.2 0-1.3-.4-2.4-1.3-3.3-.9-.9-2.2-1.5-4-1.9-2.6-.6-4.2-1-4.6-1.3-.4-.2-.7-.6-.7-1.1 0-.4.2-.8.6-1.1.4-.3 1.1-.5 2.1-.5 1.2 0 2 .3 2.5.9.3.3.4.8.5 1.4h4.4c-.2-2.1-1-3.6-2.3-4.5-1.3-.9-3.1-1.3-5.2-1.3-2.2 0-4 .6-5.2 1.7-1.2 1.1-1.8 2.5-1.8 4.1 0 1.4.4 2.4 1.2 3.1.8.7 2.1 1.3 4.1 1.8 2.7.6 4.2 1.1 4.6 1.4.4.3.6.7.6 1.2 0 .6-.3 1-.8 1.3zm-97.8-7.1c0-.9-.1-1.7.2-2.1.4-.8 1.3-1.3 2.5-1.3 1.1 0 1.6.4 2 1.3.2.5.3 1.2.3 2.2V24H40V13.6c0-.8.1-1.4.4-2 .5-1 1.5-1.6 2.7-1.6 1.1 0 1.8.4 2.2 1.2.2.4.3 1 .3 1.6v11.1h4.5v-11c0-1.1.1-2 0-2.6-.2-.9-.5-1.6-1-2.2-.6-.7-1.2-1.3-2-1.6-.7-.3-1.5-.4-2.2-.4-1.1 0-2.1.2-3 .7-.9.5-1.8 1.2-2.3 2.2-.3-.8-.8-1.5-1.5-2.1-.8-.6-1.8-.9-3.1-.9-1.4 0-2.3.3-3.2 1-.6.6-1.3 1.1-1.8 2V6.5H.5V24h30V13.5zm-18.7 8.8c-.9.5-2.1.7-3.6.7s-2.6-.2-3.5-.5c-.8-.3-1.5-.8-2.1-1.4-.5-.6-1.1-2.3-1.1-3.3h4.4c.1.9.4 1.8.8 2.2.4.3.8.5 1.4.5.6 0 1.1-.2 1.5-.6.4-.4.6-1 .6-1.6 0-.7-.2-1.2-.6-1.6-.4-.5-.9-.7-1.6-.7H6.8v-2.7c.2 0 .4.1.6.1.6 0 1.1-.2 1.5-.5.4-.3.6-.8.6-1.2 0-.5-.1-.8-.4-1.1-.4-.4-.8-.6-1.3-.6s-1 .1-1.3.4c-.3.3-.5.9-.6 1.7H1.5c0-1.5 1.1-3 2.1-3.7 1-.7 2.1-.9 3.9-.9 2.1 0 4 .3 4.9 1 .9.7 1.4 1.7 1.4 2.8 0 .6-.2 1.2-.6 1.8-.4.5-1 1-1.7 1.4.6.1 1.1.3 1.4.5.5.3 1 .7 1.3 1.2.3.5.4 1.1.4 1.8 0 .9-.2 1.7-.7 2.5-.4.8-1.1 1.4-2.1 1.8zM28.6 19c-.4.9-1 1.7-1.7 2.3-.7.6-1.5 1-2.3 1.2-1.1.3-2.2.4-3.1.4h-7.7s2.7-2.1 2.6-4.9c-.1-2.9-2.6-3.8-2.6-3.8s1.9-.9 1.7-3.6c0-1.8-1.6-2.6-1.6-2.6v-.5h8c1.5 0 2.4.1 3.4.5.9.4 1.7.9 2.3 1.6.6.7 1 1.5 1.3 2.5.3.9.4 2 .4 3-.1 1.7-.3 3-.7 3.9zm-8.3-8H19v8.5h1.3c1.1 0 1.8-.1 2.3-.3.5-.2.8-.6 1.1-1.2.3-.6.4-1.5.4-2.7 0-1.6-.3-2.8-.9-3.4-.6-.6-1.5-.9-2.9-.9zm59.3 13.4c1.2 0 2.2-.2 3-.7.8-.5 1.3-1.2 1.9-2.2V24H89V.5h-4.5v8.3c-.5-.8-1.1-1.5-1.9-1.9-.8-.5-1.7-.7-2.7-.7-2.2 0-4 .8-5.3 2.5-1.3 1.7-2 4-2 7 0 2.6.7 4.7 2 6.3s3 2.4 5 2.4zM78 11.6c.6-1 1.6-1.5 2.9-1.5.8 0 1.6.3 2.2.8 1 .9 1.6 2.4 1.6 4.5 0 1.5-.3 2.7-1 3.7s-1.6 1.4-2.9 1.4c-1.3 0-2.2-.5-2.8-1.4-.6-1-.9-2.2-.9-3.8 0-1.4.3-2.7.9-3.7zM61.8 24.5c2.9 0 5.1-.9 6.5-2.7 1.4-1.8 2.1-4 2.1-6.5s-.7-4.7-2.1-6.5C66.9 7 64.7 6 61.8 6s-5.1.9-6.5 2.7c-1.4 1.8-2.1 4-2.1 6.5s.7 4.7 2.1 6.5c1.4 1.9 3.6 2.8 6.5 2.8zm-3-13.2c.7-.9 1.7-1.4 3-1.4s2.3.5 3 1.4c.7.9 1 2.3 1 4 0 1.7-.3 3.1-1 4-.7.9-1.7 1.4-3 1.4s-2.3-.5-3-1.4c-.7-.9-1-2.3-1-4-.1-1.8.3-3.1 1-4zM.5 39h1v-9H6v3h1v-3h4.5v5h1v-5H17v3h1v-3h4.5v6.5h1V30H28v3h1v-3h4.5v5h1v-5H39v3h1v-3h4.5v9h1v-9H50v3h1v-3h4.5v5h1v-5H61v3h1v-3h4.5v6.5h1V30H72v3h1v-3h4.5v5h1v-5H83v3h1v-3h4.5v9h1v-9H94v3h1v-3h4.5v5h1v-5h4.5v3h1v-3h4.5v6.5h1V30h4.5v3h1v-3h4.5v5h1v-5h4.5v3h1v-3h4.5v9h1V29H.5v10z" style="fill:#f7f7f7"/></svg>